<svg width="31" height="29" viewBox="0 0 31 29" fill="none" xmlns="http://www.w3.org/2000/svg">
<path d="M2.58325 14.4999C2.58325 9.94329 2.58325 7.66438 4.09709 6.24942C5.60963 4.83325 8.04571 4.83325 12.9166 4.83325H18.0833C22.9541 4.83325 25.3902 4.83325 26.9028 6.24942C28.4166 7.66438 28.4166 9.94329 28.4166 14.4999V16.9166C28.4166 21.4732 28.4166 23.7521 26.9028 25.1671C25.3902 26.5833 22.9541 26.5833 18.0833 26.5833H12.9166C8.04571 26.5833 5.60963 26.5833 4.09709 25.1671C2.58325 23.7521 2.58325 21.4732 2.58325 16.9166V14.4999Z" stroke="#5F6A77" stroke-width="1.25"/>
<path opacity="0.5" d="M9.0415 4.83325V3.02075M21.9582 4.83325V3.02075M3.229 10.8749H27.7707" stroke="#5F6A77" stroke-width="1.25" stroke-linecap="round"/>
<path d="M23.25 20.5417C23.25 20.8621 23.1139 21.1695 22.8717 21.3961C22.6294 21.6227 22.3009 21.75 21.9583 21.75C21.6158 21.75 21.2872 21.6227 21.045 21.3961C20.8028 21.1695 20.6667 20.8621 20.6667 20.5417C20.6667 20.2212 20.8028 19.9139 21.045 19.6872C21.2872 19.4606 21.6158 19.3333 21.9583 19.3333C22.3009 19.3333 22.6294 19.4606 22.8717 19.6872C23.1139 19.9139 23.25 20.2212 23.25 20.5417ZM23.25 15.7083C23.25 16.0288 23.1139 16.3361 22.8717 16.5628C22.6294 16.7894 22.3009 16.9167 21.9583 16.9167C21.6158 16.9167 21.2872 16.7894 21.045 16.5628C20.8028 16.3361 20.6667 16.0288 20.6667 15.7083C20.6667 15.3879 20.8028 15.0805 21.045 14.8539C21.2872 14.6273 21.6158 14.5 21.9583 14.5C22.3009 14.5 22.6294 14.6273 22.8717 14.8539C23.1139 15.0805 23.25 15.3879 23.25 15.7083ZM16.7917 20.5417C16.7917 20.8621 16.6556 21.1695 16.4133 21.3961C16.1711 21.6227 15.8426 21.75 15.5 21.75C15.1574 21.75 14.8289 21.6227 14.5867 21.3961C14.3444 21.1695 14.2083 20.8621 14.2083 20.5417C14.2083 20.2212 14.3444 19.9139 14.5867 19.6872C14.8289 19.4606 15.1574 19.3333 15.5 19.3333C15.8426 19.3333 16.1711 19.4606 16.4133 19.6872C16.6556 19.9139 16.7917 20.2212 16.7917 20.5417ZM16.7917 15.7083C16.7917 16.0288 16.6556 16.3361 16.4133 16.5628C16.1711 16.7894 15.8426 16.9167 15.5 16.9167C15.1574 16.9167 14.8289 16.7894 14.5867 16.5628C14.3444 16.3361 14.2083 16.0288 14.2083 15.7083C14.2083 15.3879 14.3444 15.0805 14.5867 14.8539C14.8289 14.6273 15.1574 14.5 15.5 14.5C15.8426 14.5 16.1711 14.6273 16.4133 14.8539C16.6556 15.0805 16.7917 15.3879 16.7917 15.7083ZM10.3333 20.5417C10.3333 20.8621 10.1972 21.1695 9.95501 21.3961C9.71278 21.6227 9.38424 21.75 9.04167 21.75C8.6991 21.75 8.37056 21.6227 8.12832 21.3961C7.88609 21.1695 7.75 20.8621 7.75 20.5417C7.75 20.2212 7.88609 19.9139 8.12832 19.6872C8.37056 19.4606 8.6991 19.3333 9.04167 19.3333C9.38424 19.3333 9.71278 19.4606 9.95501 19.6872C10.1972 19.9139 10.3333 20.2212 10.3333 20.5417ZM10.3333 15.7083C10.3333 16.0288 10.1972 16.3361 9.95501 16.5628C9.71278 16.7894 9.38424 16.9167 9.04167 16.9167C8.6991 16.9167 8.37056 16.7894 8.12832 16.5628C7.88609 16.3361 7.75 16.0288 7.75 15.7083C7.75 15.3879 7.88609 15.0805 8.12832 14.8539C8.37056 14.6273 8.6991 14.5 9.04167 14.5C9.38424 14.5 9.71278 14.6273 9.95501 14.8539C10.1972 15.0805 10.3333 15.3879 10.3333 15.7083Z" fill="#5F6A77"/>
</svg>
