<svg width="17" height="22" viewBox="0 0 17 22" fill="none" xmlns="http://www.w3.org/2000/svg">
<path d="M0.00619516 2.03755L0.118294 20.7959C0.12006 20.9858 0.17684 21.1718 0.282519 21.3336C0.388196 21.4955 0.538772 21.6273 0.718038 21.7147C0.897303 21.8021 1.09847 21.8419 1.29989 21.8298C1.5013 21.8176 1.69534 21.754 1.86111 21.6458L16.2027 12.2023C16.7973 11.8109 16.7917 10.875 16.1925 10.4879L1.73876 1.17314C1.57205 1.06532 1.37716 1.00253 1.17527 0.991581C0.973384 0.980635 0.772216 1.02196 0.593627 1.11106C0.415037 1.20016 0.265856 1.33363 0.16229 1.49697C0.0587265 1.66031 0.00473958 1.84728 0.00619516 2.03755Z" fill="white"/>
</svg>
