<svg width="155" height="38" viewBox="0 0 155 38" fill="none" xmlns="http://www.w3.org/2000/svg">
<path d="M16.5217 27.4689V31.1111C16.5217 32.8293 18.0011 34.2222 19.8261 34.2222C21.651 34.2222 23.1304 32.8293 23.1304 31.1111V27.4689M19.8261 3.11108V4.66664M4.95652 18.6666H3.30434M9.08695 8.55553L8.09549 7.62204M30.5652 8.55553L31.5569 7.62204M36.3478 18.6666H34.6956M29.7391 18.6666C29.7391 23.8213 25.3009 28 19.8261 28C14.3513 28 9.91304 23.8213 9.91304 18.6666C9.91304 13.512 14.3513 9.33331 19.8261 9.33331C25.3009 9.33331 29.7391 13.512 29.7391 18.6666Z" stroke="black" stroke-width="2" stroke-linecap="round" stroke-linejoin="round"/>
<path d="M50.85 11.25L55.225 19.6L59.675 11.25H63.4L56.95 22.8V29H53.525V22.75L47.1 11.25H50.85ZM68.299 11.25H71.799L78.324 29H74.774L73.124 24.575H66.924L65.299 29H61.749L68.299 11.25ZM72.499 22.15L70.049 14.825L67.499 22.15H72.499ZM85.0959 11.25H88.5959L95.1209 29H91.5709L89.9209 24.575H83.7209L82.0959 29H78.5459L85.0959 11.25ZM89.2959 22.15L86.8459 14.825L84.2959 22.15H89.2959ZM97.0678 29V11.25H104.918C105.734 11.25 106.484 11.4167 107.168 11.75C107.868 12.0833 108.468 12.5333 108.968 13.1C109.484 13.6667 109.876 14.3 110.143 15C110.426 15.7 110.568 16.4167 110.568 17.15C110.568 17.9 110.434 18.625 110.168 19.325C109.918 20.0083 109.551 20.6083 109.068 21.125C108.584 21.6417 108.018 22.0417 107.368 22.325L111.418 29H107.618L103.968 23.05H100.518V29H97.0678ZM100.518 20.025H104.843C105.276 20.025 105.659 19.9 105.993 19.65C106.326 19.3833 106.593 19.0333 106.793 18.6C106.993 18.1667 107.093 17.6833 107.093 17.15C107.093 16.5833 106.976 16.0917 106.743 15.675C106.509 15.2417 106.209 14.9 105.843 14.65C105.493 14.4 105.109 14.275 104.693 14.275H100.518V20.025ZM114.019 22.325V11.075H117.369V22.325H114.019ZM114.019 29V25.225H117.369V29H114.019ZM134.635 14.275H128.96V29H125.535V14.275H119.86V11.25H134.635V14.275Z" fill="black"/>
</svg>
