<svg width="17" height="17" viewBox="0 0 17 17" fill="none" xmlns="http://www.w3.org/2000/svg">
<path d="M8.49996 1.41663C7.56976 1.41663 6.64867 1.59984 5.78929 1.95581C4.9299 2.31178 4.14903 2.83354 3.49129 3.49129C2.1629 4.81967 1.41663 6.62134 1.41663 8.49996C1.41663 11.6308 3.44954 14.287 6.26163 15.2291C6.61579 15.2858 6.72913 15.0662 6.72913 14.875V13.6779C4.76704 14.1029 4.34913 12.7287 4.34913 12.7287C4.02329 11.907 3.56288 11.6875 3.56288 11.6875C2.91829 11.2483 3.61246 11.2625 3.61246 11.2625C4.32079 11.312 4.69621 11.992 4.69621 11.992C5.31246 13.0687 6.35371 12.75 6.75746 12.58C6.82121 12.1195 7.00538 11.8079 7.20371 11.6308C5.63121 11.4537 3.98079 10.8445 3.98079 8.14579C3.98079 7.35954 4.24996 6.72913 4.71038 6.22621C4.63954 6.04913 4.39163 5.31246 4.78121 4.35621C4.78121 4.35621 5.37621 4.16496 6.72913 5.07871C7.28871 4.92288 7.89788 4.84496 8.49996 4.84496C9.10204 4.84496 9.71121 4.92288 10.2708 5.07871C11.6237 4.16496 12.2187 4.35621 12.2187 4.35621C12.6083 5.31246 12.3604 6.04913 12.2895 6.22621C12.75 6.72913 13.0191 7.35954 13.0191 8.14579C13.0191 10.8516 11.3616 11.4466 9.78204 11.6237C10.037 11.8433 10.2708 12.2754 10.2708 12.9341V14.875C10.2708 15.0662 10.3841 15.2929 10.7454 15.2291C13.5575 14.28 15.5833 11.6308 15.5833 8.49996C15.5833 7.56976 15.4001 6.64867 15.0441 5.78928C14.6881 4.9299 14.1664 4.14903 13.5086 3.49129C12.8509 2.83354 12.07 2.31178 11.2106 1.95581C10.3512 1.59984 9.43016 1.41663 8.49996 1.41663Z" fill="#111111"/>
</svg>
