<svg width="15" height="15" viewBox="0 0 15 15" fill="none" xmlns="http://www.w3.org/2000/svg">
<g clip-path="url(#clip0_1_227)">
<path d="M7.50662 3.67852C7.37472 3.67852 7.24425 3.68524 7.1157 3.69841C6.98716 3.71158 6.86039 3.73109 6.73579 3.7567C6.61118 3.78231 6.48879 3.81403 6.36885 3.85146L6.0168 3.98073L5.68162 4.14257L5.36533 4.33503L5.0698 4.55608L4.79709 4.8038L4.54913 5.07627L4.32784 5.37146L4.13515 5.68747L3.9732 6.02226C3.92452 6.13677 3.88123 6.25417 3.84375 6.37402C3.80626 6.49386 3.77455 6.61621 3.74889 6.74067C3.72323 6.86513 3.70372 6.99175 3.6905 7.1202C3.67729 7.24865 3.67065 7.37897 3.67065 7.51074C3.67065 7.6425 3.67738 7.77282 3.6905 7.90127C3.70355 8.0287 3.72303 8.15539 3.74889 8.28085C3.77455 8.40579 3.80626 8.52766 3.84375 8.6475C3.88123 8.76735 3.92448 8.8847 3.9732 8.99926L4.13515 9.33405L4.32784 9.65001L4.54913 9.94526L4.79709 10.2177L5.0698 10.4654L5.36533 10.6865L5.68162 10.8789L6.0168 11.0408L6.36885 11.1701L6.73579 11.2648C6.86136 11.2907 6.98816 11.3101 7.1157 11.3232C7.24559 11.3364 7.37607 11.343 7.50662 11.343C7.63853 11.343 7.769 11.3363 7.8975 11.3232C8.02504 11.3101 8.15184 11.2907 8.27741 11.2648L8.6444 11.1701L8.99645 11.0408L9.33158 10.8789L9.64792 10.6865L9.94345 10.4654L10.2162 10.2177L10.4642 9.94526L10.6855 9.65001L10.8782 9.33405L11.0401 8.99926L11.1696 8.6475C11.207 8.52766 11.2387 8.40531 11.2644 8.28085L11.3228 7.90122C11.336 7.77278 11.3427 7.64245 11.3427 7.51069C11.3427 7.37892 11.336 7.2486 11.3228 7.12015C11.3098 6.99274 11.2903 6.86607 11.2644 6.74062C11.2387 6.61568 11.207 6.49386 11.1696 6.37397L11.0401 6.02221L10.8782 5.68742L10.6855 5.37141L10.4642 5.07622L10.2162 4.80375L9.94345 4.55603L9.64792 4.33498L9.33158 4.14253L8.99645 3.98068L8.6444 3.85141L8.27741 3.75665L7.8975 3.69836C7.76763 3.6851 7.63717 3.67846 7.50662 3.67847V3.67852ZM7.50662 5.00125C7.59384 5.00125 7.67991 5.00558 7.76467 5.01413L8.01456 5.05195L8.25593 5.11346L8.48707 5.19741L8.70682 5.30265L8.91346 5.42783L9.10663 5.57185L9.28472 5.73341L9.44643 5.9113L9.59059 6.10429L9.71591 6.31121L9.82115 6.53082C9.85277 6.60597 9.88084 6.683 9.90525 6.76176C9.92966 6.84053 9.95018 6.92102 9.96676 7.003C9.98333 7.08498 9.99559 7.1684 10.0046 7.25312L10.0175 7.51098C10.0175 7.5981 10.0131 7.68412 10.0046 7.76888C9.99602 7.85365 9.98343 7.93707 9.96676 8.019C9.95008 8.10094 9.92951 8.18143 9.90525 8.26024L9.82115 8.49118L9.71591 8.71079L9.59059 8.91767L9.44643 9.1107L9.28472 9.2886L9.10663 9.45015L8.91346 9.59417L8.70682 9.71935L8.48707 9.82459L8.25593 9.90854L8.01456 9.97005L7.76467 10.0078C7.67891 10.0164 7.59277 10.0207 7.50658 10.0207C7.42037 10.0207 7.33421 10.0164 7.24843 10.0078L6.99855 9.97005C6.91652 9.95342 6.83598 9.93286 6.75712 9.90854L6.52598 9.82459L6.30623 9.71935L6.0996 9.59417L5.90642 9.45015L5.72833 9.2886L5.56663 9.1107L5.42247 8.91767L5.29714 8.71079L5.1919 8.49118L5.10781 8.26024L5.0463 8.019L5.00848 7.76888C4.99988 7.68318 4.99558 7.59711 4.9956 7.51098C4.99558 7.42486 4.99988 7.3388 5.00848 7.25312C5.01699 7.1684 5.02963 7.08493 5.0463 7.003C5.06281 6.92163 5.08335 6.84114 5.10786 6.76181L5.19195 6.53086L5.29719 6.31126L5.42252 6.10434L5.56668 5.91135L5.72838 5.73345L5.90647 5.5719L6.09965 5.42788L6.30628 5.3027L6.52603 5.19746C6.60167 5.16569 6.67882 5.13768 6.75722 5.11351L6.99864 5.052C7.08067 5.03537 7.16419 5.02269 7.24853 5.01418C7.33431 5.00559 7.42046 5.00129 7.50667 5.0013L7.50662 5.00125Z" fill="url(#paint0_radial_1_227)"/>
<path d="M11.4982 2.58826C11.4678 2.58826 11.4373 2.5898 11.407 2.59287C11.3767 2.59593 11.3466 2.60052 11.3167 2.60661C11.2869 2.6127 11.2574 2.62029 11.2283 2.62934C11.1992 2.6384 11.1705 2.64893 11.1425 2.66087C11.1144 2.67282 11.087 2.68618 11.0603 2.7009C11.0335 2.71558 11.0076 2.7316 10.9824 2.7489C10.9573 2.76622 10.933 2.78479 10.9097 2.80455C10.8864 2.82429 10.8641 2.84518 10.8429 2.86716C10.8217 2.88916 10.8016 2.9122 10.7827 2.93622C10.7637 2.96023 10.746 2.98519 10.7296 3.01099C10.7131 3.03677 10.6979 3.06336 10.6841 3.09066C10.6703 3.11799 10.6579 3.14599 10.6468 3.17457C10.6358 3.20314 10.6262 3.23225 10.618 3.26178C10.6099 3.29132 10.6032 3.32125 10.598 3.35145C10.5929 3.38165 10.5892 3.41209 10.587 3.44266C10.5855 3.46431 10.5847 3.48602 10.5847 3.50772C10.5847 3.53839 10.5862 3.56904 10.5893 3.59956C10.5923 3.63006 10.5969 3.66038 10.6029 3.69043C10.609 3.72047 10.6165 3.75019 10.6255 3.77947C10.6345 3.80876 10.645 3.83758 10.6568 3.86582C10.6687 3.89407 10.682 3.92171 10.6966 3.94862C10.7112 3.97553 10.7271 4.00169 10.7443 4.027C10.7615 4.05229 10.7799 4.0767 10.7996 4.10014C10.8192 4.12359 10.84 4.14605 10.8618 4.16741C10.8837 4.18877 10.9066 4.20901 10.9304 4.22806C10.9543 4.24712 10.9791 4.26497 11.0047 4.28154C11.0303 4.29811 11.0568 4.31338 11.084 4.32729C11.1111 4.3412 11.1389 4.35375 11.1673 4.36487C11.1957 4.37597 11.2246 4.38564 11.2539 4.39384C11.2833 4.40203 11.313 4.40873 11.343 4.41393C11.373 4.41915 11.4033 4.42285 11.4336 4.42503C11.4552 4.42657 11.4767 4.42734 11.4983 4.42734C11.5287 4.42735 11.5592 4.42582 11.5895 4.42277C11.6198 4.41971 11.6499 4.41512 11.6798 4.40903C11.7096 4.40294 11.7391 4.39536 11.7682 4.3863C11.7973 4.37724 11.826 4.36672 11.854 4.35478C11.8821 4.34284 11.9095 4.32949 11.9362 4.31479C11.963 4.30009 11.9889 4.28405 12.0141 4.26674C12.0392 4.24944 12.0635 4.23088 12.0868 4.21114C12.1101 4.19139 12.1324 4.17047 12.1536 4.14848C12.1748 4.12649 12.1949 4.10344 12.2138 4.07943C12.2328 4.05541 12.2505 4.03045 12.2669 4.00465C12.2834 3.97886 12.2986 3.95225 12.3124 3.92493C12.3262 3.89761 12.3386 3.86961 12.3497 3.84103C12.3607 3.81246 12.3703 3.78335 12.3785 3.75381C12.3866 3.72427 12.3933 3.69435 12.3985 3.66414C12.4036 3.63394 12.4073 3.6035 12.4095 3.57293C12.411 3.55128 12.4118 3.52958 12.4118 3.50787C12.4118 3.47722 12.4103 3.44658 12.4072 3.41609C12.4042 3.38559 12.3996 3.35526 12.3936 3.32522C12.3875 3.29517 12.38 3.26545 12.371 3.23617C12.362 3.20688 12.3515 3.17806 12.3397 3.14982C12.3278 3.12157 12.3145 3.09393 12.2999 3.06702C12.2853 3.04011 12.2694 3.01395 12.2522 2.98864C12.235 2.96334 12.2165 2.93891 12.1969 2.91546C12.1773 2.892 12.1565 2.86955 12.1347 2.84818C12.1128 2.82683 12.0899 2.80659 12.0661 2.78754C12.0422 2.76849 12.0174 2.75066 11.9918 2.7341C11.9662 2.71753 11.9397 2.70226 11.9125 2.68835C11.8854 2.67444 11.8576 2.6619 11.8292 2.65078C11.8008 2.63967 11.7719 2.63 11.7426 2.6218C11.7132 2.6136 11.6835 2.60688 11.6535 2.60166C11.6235 2.59646 11.5932 2.59277 11.5629 2.59061C11.5413 2.58907 11.5198 2.58831 11.4982 2.58831V2.58826Z" fill="url(#paint1_radial_1_227)"/>
<path d="M6.77917 0.0135675C6.36196 0.0128947 5.98964 0.0146244 5.65518 0.0193337L4.75849 0.0433608C4.49285 0.0548938 4.25815 0.0699337 4.04748 0.0893956C3.94215 0.0991025 3.84277 0.109963 3.74859 0.121928C3.65896 0.133225 3.56957 0.146379 3.48049 0.161381C3.39568 0.175798 3.31519 0.191366 3.23801 0.208281C3.16084 0.225197 3.08712 0.243458 3.016 0.263064C2.94647 0.282236 2.87749 0.303324 2.80913 0.326304C2.74214 0.348889 2.67679 0.37282 2.61225 0.398385C2.48318 0.449514 2.35727 0.50689 2.22762 0.571186C2.12786 0.620682 2.0357 0.670803 1.94814 0.723855C1.86059 0.776906 1.77764 0.832938 1.69643 0.893967C1.6128 0.957122 1.53219 1.02418 1.45487 1.09493C1.37404 1.16855 1.29148 1.24952 1.2057 1.34001C1.09792 1.45308 1.00426 1.55851 0.921128 1.66197C0.879561 1.71367 0.840637 1.7648 0.803972 1.81622C0.767712 1.86689 0.733048 1.91869 0.700031 1.97153C0.667354 2.02391 0.636407 2.07725 0.606806 2.13213C0.576743 2.18795 0.54833 2.24465 0.521606 2.30215C0.46692 2.41959 0.415887 2.54607 0.364949 2.68725C0.32716 2.79163 0.293322 2.89739 0.263507 3.00431C0.233089 3.11359 0.206034 3.22791 0.181911 3.35155C0.157788 3.47519 0.13674 3.60816 0.118239 3.75521C0.0983024 3.91639 0.0823756 4.07805 0.0704733 4.24002C0.0570181 4.41811 0.0458696 4.61408 0.0367393 4.8322L0.015115 5.55743L0.00348585 6.44148L0.00012207 7.51006L0.00997317 9.06399L0.0407278 10.2413L0.0644185 10.7012L0.0940199 11.0823C0.103509 11.185 0.115382 11.2875 0.129628 11.3896C0.142603 11.4803 0.156538 11.5597 0.171531 11.6284C0.201953 11.7682 0.237926 11.9066 0.279365 12.0434C0.319042 12.1745 0.364416 12.3037 0.415358 12.4308C0.46543 12.5552 0.520212 12.6753 0.579799 12.7908C0.639386 12.9063 0.703779 13.0173 0.772977 13.1239C0.842175 13.2306 0.916178 13.3328 0.995179 13.4307C1.07409 13.5286 1.15803 13.6223 1.24665 13.7115C1.3354 13.8009 1.42901 13.886 1.52767 13.9668C1.62749 14.0486 1.73125 14.1254 1.83858 14.197C1.93819 14.2636 2.03675 14.3246 2.13603 14.3806C2.23531 14.4365 2.33546 14.4873 2.43839 14.5335C2.54132 14.5797 2.64685 14.6213 2.75708 14.6586C2.86732 14.696 2.98217 14.7293 3.10355 14.7588C3.22494 14.7883 3.35344 14.8142 3.48943 14.8368C3.62542 14.8594 3.77079 14.8787 3.9261 14.8954C4.08141 14.9121 4.2471 14.9259 4.42514 14.9374C4.60318 14.9489 4.79347 14.9582 4.99795 14.9656C5.31381 14.977 5.79194 14.9837 6.34332 14.9862L8.12829 14.9826L9.81854 14.9589L10.4612 14.9409L10.8799 14.9193C10.9698 14.912 11.0577 14.9034 11.1426 14.8932C11.2274 14.8831 11.3112 14.8715 11.3927 14.8584C11.4742 14.8452 11.5538 14.8305 11.6321 14.8141C11.7095 14.798 11.7865 14.78 11.863 14.7602C11.9387 14.741 12.0134 14.7191 12.0873 14.6959C12.1612 14.6727 12.2343 14.6476 12.307 14.6207C12.3802 14.5936 12.4526 14.5647 12.5243 14.5341C12.5966 14.5034 12.6687 14.4705 12.7411 14.4356C12.8522 14.3821 12.9417 14.3374 13.0202 14.2939C13.0942 14.2533 13.1653 14.208 13.2333 14.1582C13.3004 14.1088 13.3671 14.0525 13.444 13.9817C13.5209 13.9109 13.608 13.8255 13.7159 13.7176C13.8107 13.6228 13.8907 13.5405 13.9596 13.4656C14.0286 13.3906 14.0867 13.3232 14.1376 13.2582C14.1862 13.1966 14.2314 13.1324 14.2731 13.0659C14.3138 13.0011 14.3513 12.9337 14.3895 12.859C14.447 12.7465 14.4981 12.6424 14.5439 12.5419C14.5884 12.4451 14.629 12.3465 14.6657 12.2465C14.7018 12.1472 14.7331 12.0463 14.7594 11.944C14.7865 11.8387 14.8099 11.7276 14.8301 11.6058C14.8502 11.4839 14.8673 11.3513 14.8821 11.2032C14.8969 11.0551 14.9095 10.8914 14.9205 10.7075L14.9499 10.0901L14.975 9.32237L14.993 8.46701L14.9999 7.57263L14.9839 5.81601L14.9624 5.02922L14.9331 4.35367L14.8966 3.827C14.8833 3.68043 14.869 3.56501 14.8538 3.48697C14.837 3.40074 14.8182 3.31491 14.7975 3.22954C14.7773 3.14648 14.7551 3.06391 14.7309 2.98192C14.7074 2.90204 14.6817 2.82277 14.6541 2.7442C14.6268 2.66659 14.5979 2.59061 14.5676 2.51627C14.5374 2.44194 14.5046 2.36933 14.4705 2.29825C14.4364 2.22718 14.4006 2.15784 14.3631 2.09008C14.3255 2.02233 14.2864 1.95625 14.2455 1.89181C14.2046 1.82737 14.1621 1.76456 14.1177 1.70344C14.0736 1.64251 14.0276 1.58297 13.9798 1.52492C13.9322 1.46718 13.8828 1.41096 13.8317 1.35634C13.7806 1.30179 13.7279 1.24888 13.6734 1.19767C13.619 1.14644 13.5629 1.09685 13.5051 1.04889C13.447 1.00078 13.3874 0.954479 13.3265 0.910065C13.2649 0.865197 13.202 0.822217 13.1377 0.781184C13.0726 0.739567 13.0063 0.699888 12.9389 0.662202C12.8703 0.623883 12.8006 0.587539 12.7299 0.553214C12.6125 0.496174 12.504 0.445574 12.3975 0.400692C12.2927 0.356148 12.186 0.316587 12.0775 0.282142C11.9684 0.247783 11.8549 0.218326 11.7299 0.192905C11.605 0.167485 11.4688 0.146293 11.3146 0.128272C11.1604 0.110252 10.9882 0.095692 10.7913 0.0835824C10.5943 0.0714728 10.3728 0.0619573 10.1199 0.0542686L9.26044 0.0350472L8.17264 0.0222169L6.77965 0.0136628L6.77917 0.0135675ZM7.50262 1.33515L9.51143 1.34659L10.2692 1.3612C10.4779 1.36706 10.6372 1.37393 10.7306 1.38186C10.8521 1.3921 10.968 1.40493 11.0787 1.4203C11.185 1.43498 11.2908 1.45324 11.3959 1.47504C11.4968 1.49618 11.593 1.52021 11.6852 1.54731C11.7773 1.57441 11.8653 1.60478 11.9497 1.63837C12.0341 1.67196 12.1149 1.70892 12.1926 1.74938C12.2696 1.78954 12.3445 1.83373 12.417 1.88177C12.4891 1.92958 12.5585 1.9811 12.626 2.0366C12.6935 2.0921 12.7589 2.15159 12.8227 2.21521C12.8902 2.28235 12.9523 2.35073 13.0097 2.42127C13.0668 2.49138 13.1196 2.56486 13.1679 2.64131C13.2168 2.71885 13.2608 2.79934 13.2997 2.8823C13.3395 2.96688 13.3752 3.05626 13.4073 3.15126C13.4394 3.24626 13.468 3.34723 13.4933 3.45511C13.5199 3.56948 13.5421 3.68481 13.5599 3.80086C13.5792 3.92388 13.5956 4.05506 13.6095 4.19553C13.6235 4.33599 13.635 4.48577 13.6445 4.64603C13.6521 4.77458 13.6587 4.94421 13.6644 5.14455L13.6784 5.82764L13.6892 7.50088L13.677 9.17254L13.6623 9.85366L13.642 10.3491C13.628 10.581 13.6132 10.776 13.5955 10.9457C13.5866 11.0306 13.577 11.1091 13.5663 11.1828C13.5563 11.2524 13.5445 11.3217 13.5308 11.3907C13.5183 11.4536 13.5038 11.5161 13.4873 11.5781C13.4715 11.6372 13.4538 11.6959 13.434 11.7538C13.4142 11.8121 13.3926 11.8697 13.3692 11.9266C13.3445 11.9867 13.3185 12.0463 13.2911 12.1052C13.2668 12.1579 13.2412 12.209 13.214 12.2589C13.1873 12.3082 13.1588 12.3566 13.1287 12.404C13.0989 12.4509 13.0677 12.4965 13.035 12.5407C13.0025 12.5847 12.9684 12.6276 12.9328 12.6691C12.8974 12.7105 12.8604 12.7506 12.822 12.7892C12.7835 12.8279 12.7436 12.8653 12.7023 12.9013C12.661 12.9373 12.6181 12.9719 12.5738 13.0053C12.5294 13.0386 12.4835 13.0706 12.4361 13.1013C12.3887 13.132 12.3398 13.1614 12.2892 13.1894C12.2387 13.2175 12.1867 13.2443 12.1331 13.2698C12.0786 13.2957 12.0233 13.32 11.9673 13.3426C11.9095 13.3659 11.851 13.3876 11.7919 13.4077C11.6718 13.4486 11.5451 13.4846 11.4117 13.5156C11.2727 13.5477 11.1323 13.5739 10.9911 13.5943C10.9368 13.6022 10.812 13.6097 10.6333 13.6166L9.95204 13.6355L8.02074 13.6606L5.9993 13.6638L5.20544 13.6553L4.68997 13.6393L4.30986 13.6126C4.19184 13.6026 4.08208 13.5916 3.97925 13.579C3.87641 13.5665 3.78064 13.5525 3.69054 13.5367C3.60515 13.522 3.52029 13.5043 3.43609 13.4839C3.35932 13.4652 3.28333 13.4434 3.20831 13.4186C3.13599 13.3946 3.06684 13.3681 2.99957 13.3391C2.93229 13.31 2.86694 13.2781 2.80221 13.2434C2.73748 13.2086 2.67342 13.1708 2.60865 13.1296C2.55977 13.0986 2.51254 13.0671 2.46708 13.0338C2.42162 13.0005 2.3777 12.9673 2.33541 12.9325C2.29312 12.8977 2.25252 12.8619 2.21335 12.825C2.17445 12.7883 2.13688 12.7501 2.10071 12.7107C2.06467 12.6714 2.03022 12.6309 1.99716 12.589C1.96397 12.547 1.93234 12.5037 1.90235 12.4593C1.8719 12.4142 1.8431 12.3681 1.81599 12.3209C1.7886 12.2733 1.76256 12.2241 1.73781 12.1734C1.71265 12.1217 1.68917 12.0691 1.66741 12.0159C1.6453 11.9617 1.62435 11.9058 1.60465 11.848C1.56525 11.7324 1.53065 11.6094 1.50056 11.4782C1.47048 11.347 1.44482 11.2077 1.4231 11.0592C1.40138 10.9107 1.38389 10.7533 1.36995 10.586C1.35967 10.4627 1.3515 10.2707 1.34525 10.0285L1.33218 9.16716L1.33699 6.97133L1.37481 4.87309L1.40364 4.13382L1.41998 3.88947C1.42565 3.82421 1.43151 3.77587 1.43752 3.74684C1.45732 3.65136 1.47726 3.56251 1.49787 3.47933C1.51713 3.40085 1.53856 3.32293 1.56212 3.24564C1.58452 3.17269 1.60811 3.10436 1.63334 3.03963C1.65767 2.97693 1.68478 2.91534 1.7146 2.85506C1.74372 2.79643 1.775 2.7403 1.80898 2.68567C1.84295 2.63103 1.87962 2.57802 1.9196 2.52531C1.95958 2.47259 2.00263 2.42055 2.04949 2.36779C2.09634 2.31502 2.14694 2.26173 2.20182 2.20681C2.26578 2.14248 2.33237 2.08084 2.40144 2.02204C2.46665 1.96656 2.53465 1.91445 2.60519 1.86591C2.67453 1.81786 2.74565 1.77509 2.8197 1.73578C2.89375 1.69647 2.97073 1.66096 3.0517 1.629C3.13268 1.59705 3.21773 1.56845 3.30783 1.54251C3.40249 1.51595 3.4982 1.4933 3.59472 1.47461C3.69621 1.45471 3.80399 1.43736 3.91908 1.42223C4.03417 1.40709 4.15661 1.39402 4.28751 1.38268C4.37882 1.3748 4.53615 1.36778 4.74331 1.36187L5.49728 1.34697L7.50296 1.33472L7.50262 1.33515Z" fill="url(#paint2_radial_1_227)"/>
</g>
<defs>
<radialGradient id="paint0_radial_1_227" cx="0" cy="0" r="1" gradientUnits="userSpaceOnUse" gradientTransform="translate(2.38986 16.0777) rotate(-9.53101) scale(31.7019 19.2429)">
<stop stop-color="#FED576"/>
<stop offset="0.263" stop-color="#F47133"/>
<stop offset="0.609" stop-color="#BC3081"/>
<stop offset="1" stop-color="#4C63D2"/>
</radialGradient>
<radialGradient id="paint1_radial_1_227" cx="0" cy="0" r="1" gradientUnits="userSpaceOnUse" gradientTransform="translate(2.3899 16.0776) rotate(-9.53101) scale(31.7019 19.2429)">
<stop stop-color="#FED576"/>
<stop offset="0.263" stop-color="#F47133"/>
<stop offset="0.609" stop-color="#BC3081"/>
<stop offset="1" stop-color="#4C63D2"/>
</radialGradient>
<radialGradient id="paint2_radial_1_227" cx="0" cy="0" r="1" gradientUnits="userSpaceOnUse" gradientTransform="translate(2.38985 16.0777) rotate(-9.53101) scale(31.7019 19.2429)">
<stop stop-color="#FED576"/>
<stop offset="0.263" stop-color="#F47133"/>
<stop offset="0.609" stop-color="#BC3081"/>
<stop offset="1" stop-color="#4C63D2"/>
</radialGradient>
<clipPath id="clip0_1_227">
<rect width="15" height="15" fill="white"/>
</clipPath>
</defs>
</svg>
