<svg width="19" height="19" viewBox="0 0 19 19" fill="none" xmlns="http://www.w3.org/2000/svg">
<path d="M5.49418 3.95839C5.49397 4.37832 5.32696 4.78096 5.02987 5.07775C4.73279 5.37453 4.32998 5.54114 3.91006 5.54093C3.49013 5.54072 3.08749 5.37371 2.7907 5.07663C2.49392 4.77955 2.3273 4.37674 2.32751 3.95681C2.32772 3.53688 2.49474 3.13424 2.79182 2.83746C3.0889 2.54067 3.49171 2.37406 3.91164 2.37427C4.33157 2.37448 4.73421 2.54149 5.03099 2.83858C5.32778 3.13566 5.49439 3.53847 5.49418 3.95839ZM5.54168 6.71339H2.37501V16.6251H5.54168V6.71339ZM10.545 6.71339H7.39418V16.6251H10.5133V11.4238C10.5133 8.52631 14.2896 8.25714 14.2896 11.4238V16.6251H17.4167V10.3471C17.4167 5.46256 11.8275 5.64464 10.5133 8.04339L10.545 6.71339Z" fill="#1A80B9"/>
</svg>
